# xmcd CD database file
#
# Track frame offsets:
#	208
#	12125
#	27245
#	37890
#	52690
#	66420
#	77258
#	91588
#	103845
#	115870
#	132540
#	144120
#	155933
#	165783
#	177345
#	190508
#	206315
#	221583
#	236195
#	248845
#	258733
#	267495
#	275445
#	289963
#
# Disc length: 4031 seconds
#
# Revision: 4
# Processed by: cddbd v1.5.1PL2 Copyright (c) Steve Scherf et al.
# Submitted via: CDex 1.51
#
DISCID=4c0fbd18
DTITLE=Various Artist - Country Gold 90 Great Hits Vol 3
DYEAR=1991
DGENRE=Country
TTITLE0=Don Gibson - Oh Lonesome Me
TTITLE1=Marianne Faithful - I'm Not Lisa
TTITLE2=Freddy Fender - Before The Next Teardrop Falls
TTITLE3=George Hamilton - Four Strong Winds
TTITLE4=Anne Murray - What About Me
TTITLE5=Don Willams - There's Always Something There To Remind Me
TTITLE6=Bobby Helms - My Special Angel
TTITLE7=Billie Jo Spears - What I've Got In Mind
TTITLE8=Ray Charles - Together Again
TTITLE9=George Hamilton IV - I Believe In You
TTITLE10=Sammi Smith - Help Me Make It Through The Night
TTITLE11=Roger Miller - Little Green Apples
TTITLE12=Dolly Parton - Release Me
TTITLE13=Hank Locklin - Send Me The Pillow You Dream On
TTITLE14=George Hamilton IV - Blue Eyes Crying In The Rain
TTITLE15=Billie Jo Spears - Blanket On The Ground
TTITLE16=Bobby Bare - For The Good Times
TTITLE17=Gram Parsons - Streets Of Baltimore
TTITLE18=Dottie West - I Fall To Pieces
TTITLE19=Ned Miller - From A Jack To A King
TTITLE20=Waylon Jennings - Loves Gonna Live Here
TTITLE21=Anne Murray - Reason To Believe
TTITLE22=Val Doonican - Behind Closed Doors
TTITLE23=George Jones - She Thinks I Still Care
EXTD=YEAR: 1991
EXTT0=
EXTT1=
EXTT2=
EXTT3=
EXTT4=
EXTT5=
EXTT6=
EXTT7=
EXTT8=
EXTT9=
EXTT10=
EXTT11=
EXTT12=
EXTT13=
EXTT14=
EXTT15=
EXTT16=
EXTT17=
EXTT18=
EXTT19=
EXTT20=
EXTT21=
EXTT22=
EXTT23=
PLAYORDER=
